<svg width="128" height="121" viewBox="0 0 128 121" fill="none" xmlns="http://www.w3.org/2000/svg">
<mask id="mask0_763_1919" style="mask-type:luminance" maskUnits="userSpaceOnUse" x="0" y="-1" width="128" height="123">
<path d="M128 -0.193359H0V121.148H128V-0.193359Z" fill="white"/>
</mask>
<g mask="url(#mask0_763_1919)">
<mask id="mask1_763_1919" style="mask-type:luminance" maskUnits="userSpaceOnUse" x="0" y="0" width="128" height="121">
<path d="M0.0810547 0.832031H128V120.807H0.0810547V0.832031Z" fill="white"/>
</mask>
<g mask="url(#mask1_763_1919)">
<path d="M0.572861 85.276L29.2355 70.2471C28.7849 69.8879 28.4075 69.4687 28.1009 68.9894C26.9675 67.2189 27.2089 65.1948 27.3595 64.419C25.7529 62.1105 22.8502 57.1556 23.4209 51.0071C23.4715 50.461 23.6849 48.4475 24.6075 46.0135C26.4702 41.1053 28.7649 40.9598 32.4209 34.7098C33.6569 32.5988 34.0995 31.4119 35.6942 29.7883C37.3502 28.1033 39.1035 27.1099 40.3622 26.5251C40.3489 26.5144 40.3342 26.5064 40.3209 26.493C38.9929 25.5077 35.4702 22.8947 33.9915 18.1414C33.9022 17.8557 33.8195 17.5566 33.7502 17.2615C33.5142 16.2869 33.3742 15.2708 33.3395 14.2333C33.3315 14.0397 33.3289 13.8648 33.3289 13.718C33.3289 13.4616 33.3369 13.3014 33.3369 13.3014C33.4582 3.96174 41.1889 1.51968 41.2795 1.49031C42.8475 1.04702 46.8782 0.251253 50.4222 2.49437C52.3262 3.70004 53.2822 5.28891 53.9129 6.34104C54.5289 7.36513 55.0689 8.52674 55.4995 9.74443C55.7635 9.67367 55.9102 9.63361 55.9102 9.63361C56.0422 9.61092 56.3355 9.57887 56.5875 9.74443C56.8262 9.90065 56.9329 10.153 56.9582 10.3226C57.2075 11.9301 57.2235 13.5524 57.0115 15.1533C56.8715 16.1987 56.7475 17.1067 56.4902 17.8757C56.3182 19.299 55.9475 20.6316 55.3809 21.8613C55.8782 21.8332 56.3729 21.8038 56.8702 21.7758C61.6529 21.2938 65.0262 21.932 67.1809 23.7332C68.1622 24.5543 69.0915 25.7106 70.5649 27.6893C72.7889 30.6748 73.8395 32.5067 74.5369 33.7191C75.2995 35.0476 75.6155 35.5977 76.6289 36.34C78.2702 37.547 79.9609 37.8902 81.3209 38.1652C82.8329 38.4737 84.2609 38.7621 84.7662 40.192C85.0209 40.0478 85.4675 39.8422 86.0342 39.8342C86.8782 39.8222 87.5009 40.2401 87.8435 40.5058C88.6755 41.1534 91.0515 43.5033 90.9422 47.0723C90.9195 47.8253 90.7702 49.1885 89.9329 50.7507V50.7534L121.188 83.5402C121.506 83.874 121.493 84.4121 121.16 84.7326C120.825 85.0517 120.289 85.0383 119.969 84.7045L89.0209 52.2381C88.8755 52.4451 88.3169 53.1794 87.2875 53.4211C87.0555 53.4745 86.0409 53.7135 85.1249 53.0739C84.4515 52.6026 84.2182 51.927 84.1502 51.692C83.9822 51.72 80.3542 52.2848 79.0635 50.2714C78.9142 50.0377 78.7755 49.7373 78.6955 49.3528C78.2729 49.4863 77.6155 49.6238 76.8782 49.4556C76.0529 49.2686 75.5515 48.7947 74.3449 47.6998C73.6755 47.0936 72.9955 46.5008 72.3275 45.8933C69.8942 43.6769 69.1049 44.0067 66.9555 42.0266C65.3315 40.5298 64.5355 39.1933 64.3742 39.3015C64.2369 39.3949 64.8075 40.3763 65.6942 42.1708C66.6009 44.004 67.6755 46.2778 68.3529 48.9869C68.5462 49.76 68.7849 50.8856 68.9262 52.2902L80.8515 66.6234C83.1275 68.0481 85.2875 69.6556 87.2782 71.398C87.2782 71.398 90.6595 74.3608 93.3715 78.4091C93.9342 79.2503 94.7342 80.5721 94.8435 82.3479C94.8635 82.6764 94.8555 82.9501 94.8449 83.133C95.1089 83.1504 95.4142 83.2051 95.7569 83.3199C96.7062 83.6377 97.8462 84.3694 98.8982 85.3988C99.9502 86.4296 100.917 87.7554 101.516 89.2615C101.59 89.4484 101.688 89.6928 101.788 89.9785C110.874 94.5675 114.782 96.5183 116.654 97.4489C120.096 99.1566 121.816 100.01 121.864 100.027C121.864 100.027 123.689 100.701 125.933 102.031C126.417 102.32 127.257 102.839 127.712 103.848C127.818 104.091 128.028 104.555 128 105.027C127.882 107.006 123.605 109.106 119.957 108.433C119.326 108.315 118.838 108.14 118.584 108.038C108.678 102.479 98.7755 96.9188 88.8702 91.3578C88.7889 91.4152 88.7129 91.4646 88.6435 91.5086C88.2582 91.761 87.7529 91.7329 87.3955 91.4419C84.6755 89.2281 82.2529 86.6766 80.1915 83.8567C78.6449 81.7417 77.2969 79.4639 76.1795 77.0846C74.9822 75.7855 73.6302 74.6452 72.1609 73.6852C70.9422 72.8921 69.6502 72.2285 68.2995 71.6998C69.3409 72.8561 70.3795 74.0177 71.4129 75.178C79.4835 84.2652 81.3902 86.8568 81.1009 88.9237C82.0649 89.6968 82.8769 90.6047 83.5235 91.6261C84.0075 92.3939 84.4862 93.2657 84.8289 94.1563C96.0902 103.326 104.117 110.161 105.784 111.948C106.629 112.854 107.009 113.714 107.196 114.328C107.33 114.772 107.841 116.453 107.025 118.079C106.033 120.064 103.665 120.757 101.989 120.678C100.281 120.598 99.0355 119.674 98.5035 119.259C95.5289 116.937 88.1622 109.631 78.6622 99.437C78.5609 99.3983 78.4635 99.3609 78.3689 99.3235C76.1969 98.4302 74.7635 96.4088 73.7155 94.9307C73.6222 94.7959 72.9622 93.8599 72.7142 93.5074C72.3329 93.6009 71.7155 93.709 70.9835 93.6142C69.0462 93.3605 67.5369 91.793 64.0289 86.1158C62.1902 83.1383 60.7209 80.2757 60.4022 79.6442L49.9649 67.745C49.7649 67.5126 49.6689 67.2096 49.7102 66.9105C47.6835 64.1106 46.2902 61.6739 45.3782 59.9261C43.9555 57.2063 43.2795 55.3544 41.2155 51.5024C40.3515 49.8922 39.5969 48.589 39.0862 47.7225C37.9155 48.9669 36.4329 50.2273 35.0209 51.3903C33.8809 52.3329 35.0355 56.7363 36.3009 59.8487C37.1582 59.595 38.4982 59.4441 39.5835 60.4201C40.9635 61.6592 41.0555 62.8528 41.0489 63.2093C41.3342 63.2627 41.6342 63.3682 41.9835 63.5204C42.6729 63.8155 43.0035 64.8703 42.4435 65.7943C42.0689 66.4138 40.4835 67.319 39.4875 67.8451C39.3555 68.2403 39.1715 68.6582 38.9275 69.1002C38.4635 69.9454 37.2422 72.1538 35.1809 72.3861C34.8155 72.4275 33.8182 72.4742 32.5902 71.6531C32.0609 71.5089 31.5289 71.366 30.9995 71.2231H30.9969L1.35419 86.7687C0.932861 86.9717 0.424861 86.7927 0.223528 86.3828C0.0341943 85.9903 0.182194 85.499 0.572861 85.276ZM85.4622 49.8308C85.4555 49.9175 85.3569 51.3355 86.1355 51.7254C86.4395 51.8776 86.7555 51.8108 86.8489 51.7921C88.0755 51.5318 89.1929 49.2473 89.2555 47.0856C89.3355 44.2897 87.6262 42.4498 86.8129 41.8397C86.6062 41.6834 86.3395 41.5206 86.0035 41.5232C84.8675 41.5352 84.1502 43.4592 84.0902 43.6248C86.1302 45.5635 85.5875 49.1458 85.4622 49.8308ZM80.4969 49.3848C80.7902 49.8601 81.4635 49.9736 82.5409 50.1178C82.8449 50.1565 83.2569 50.214 83.3889 50.1859C83.4422 50.1071 83.5249 49.7426 83.3169 49.1431L81.4409 47.354C81.2702 47.5342 81.0955 47.7145 80.9169 47.8867C80.8102 47.9882 80.7209 48.0737 80.6449 48.1444C80.4249 48.3514 80.4022 48.3794 80.3809 48.4235C80.2635 48.6705 80.3155 49.0911 80.4969 49.3848ZM52.4729 7.21025C51.8582 6.18483 51.0915 4.90972 49.5262 3.91634C46.5555 2.03907 43.0929 2.72936 41.7582 3.10855C39.0502 3.87495 37.6449 5.88441 37.1395 6.55334C34.9715 9.42666 34.9809 12.535 35.0209 13.4936L40.5422 14.6753C40.5595 14.6232 40.5742 14.5751 40.5915 14.5217C40.5915 14.5217 40.6275 14.4323 40.6742 14.3468C41.0422 13.6792 48.3622 11.7152 48.3622 11.7152C49.0182 11.5376 49.6422 11.3533 51.4195 10.862C52.4675 10.5709 53.5942 10.2625 53.5942 10.2625C53.6275 10.2531 53.8382 10.1957 53.8702 10.1877C53.4875 9.1209 53.0102 8.10349 52.4729 7.21025ZM55.4129 11.5162C50.9809 12.8087 46.5475 14.1012 42.1142 15.3936C42.1115 15.4043 42.1102 15.415 42.1075 15.4257C42.0529 15.69 41.9889 16.0679 41.9475 16.5432C41.9475 16.5432 41.9435 16.5833 41.9395 16.6287C41.8569 17.61 41.7755 18.6154 42.0155 19.6969C42.1222 20.1803 42.2889 20.6542 42.7022 20.936C42.7129 20.944 42.7195 20.9467 42.7235 20.9507C42.7382 20.9613 44.1222 21.7972 45.4022 21.4714C46.1395 21.2845 46.5795 20.6462 47.0195 20.0881C47.1702 19.8972 47.1409 19.9092 47.2689 19.749C47.9635 18.8664 49.0689 18.2349 49.9649 18.2616C50.5342 18.279 51.0209 18.4966 51.0209 18.4966C51.0849 18.5246 51.1355 18.5513 51.1662 18.5674C51.4382 18.6929 52.0195 18.9145 52.7755 18.8584C53.4382 18.8077 53.9275 18.5674 54.1795 18.4191C54.4942 18.1868 54.7089 17.8757 54.8755 17.4084C54.8755 17.4057 54.8755 17.4057 54.8795 17.4044C55.0969 16.7822 55.2075 15.9651 55.3489 14.9183C55.4955 13.7954 55.5169 12.6551 55.4129 11.5162ZM90.6409 90.0199C90.6409 90.0373 90.6409 90.0533 90.6449 90.0706C90.7129 90.4592 91.3729 91.2282 94.5182 92.506C97.7635 93.8225 99.7435 94.1056 100.4 93.3485C100.86 92.8198 100.73 91.6475 100.018 89.8597C99.8795 89.5125 99.7155 89.1707 99.5342 88.8449C98.4249 86.8542 96.5995 85.3027 95.2462 84.8487C94.8729 84.7245 94.6395 84.7285 94.5289 84.7566C94.5222 84.7566 94.5155 84.7593 94.5102 84.7606C94.4969 84.806 94.4822 84.8714 94.4675 84.9355C94.4675 84.9382 94.4675 84.9382 94.4675 84.9382C93.9182 86.507 92.8529 87.8876 91.7542 88.9945C91.7515 88.9971 91.7475 88.9985 91.7449 89.0012C91.6409 89.0773 91.5422 89.148 91.4475 89.2161C91.0342 89.5125 90.6475 89.7889 90.6382 89.9812C90.6382 89.9919 90.6382 90.0065 90.6409 90.0199ZM75.0889 93.9547C76.0169 95.2659 77.2862 97.0577 79.0062 97.7627C80.5075 98.3795 82.6729 98.4049 83.3782 97.4596C84.0089 96.6104 83.5422 94.8159 82.0955 92.5287C81.6315 91.7957 81.0662 91.1334 80.4075 90.5473C80.3009 90.4525 80.1942 90.3604 80.0835 90.2709C78.7969 91.4272 76.2995 92.5714 74.7569 93.2163H74.7542C74.7035 93.2377 74.6542 93.2591 74.6075 93.2778C74.8315 93.5915 75.0382 93.8839 75.0889 93.9547ZM62.0875 78.3437C62.1475 78.4118 62.1982 78.4865 62.2382 78.568C62.2555 78.6014 63.8435 81.7778 65.8342 84.9956C69.1355 90.3323 70.7409 91.3204 71.2755 91.4953C73.5662 91.3377 75.1769 91.02 76.3049 90.6528C77.7889 90.1734 78.4475 89.61 78.7369 89.2134C78.8475 89.0626 78.9075 88.9344 78.9382 88.8449C79.3155 87.7287 77.2715 84.9809 69.8182 76.5933C67.9555 74.497 66.0595 72.3901 64.1849 70.3339C64.0195 70.1536 63.7742 69.4647 64.0449 69.0908C64.1955 68.8825 64.4702 68.8331 64.6649 68.8131C67.1849 68.5661 70.9795 70.5676 70.9795 70.5676C71.9982 71.1056 72.8062 71.5729 73.3155 71.9041C75.0782 73.051 76.6449 74.0324 77.8555 75.7708C78.3342 76.4584 78.1982 76.4584 79.1609 78.365C79.1609 78.365 80.4369 80.8912 81.7315 82.9301C82.6222 84.3307 84.4369 86.7073 88.1222 89.2842C89.7049 88.1453 93.0462 85.3494 92.7035 82.3105C92.6289 81.6282 92.3795 81.1409 91.7875 79.9659C90.7062 77.8296 88.7195 75.4864 85.8782 72.9989C83.9315 71.2939 81.8129 69.7264 79.5835 68.3405C79.4875 68.2804 79.3995 68.2056 79.3262 68.1161L68.1689 54.7069C66.6782 56.7056 65.0102 58.5669 63.1915 60.2519C60.0355 63.1813 56.4502 65.5913 52.5142 67.4259L62.0875 78.3437ZM41.0889 25.1445C41.7982 25.6225 42.4169 26.0404 43.3742 26.3769C46.5515 27.4904 49.1689 26.1993 49.1689 26.1993C50.0969 25.6879 51.6195 24.6785 52.8675 22.8787C53.5462 21.8986 53.9555 20.9533 54.2102 20.2056C53.5915 20.4727 53.0835 20.5314 52.7382 20.5354C51.6315 20.5514 50.7689 20.2083 50.7689 20.2083C50.4982 20.1001 50.1155 19.9079 49.6475 20.0027C49.1702 20.1015 48.8369 20.3552 48.4662 20.9507C48.2155 21.3526 47.2915 22.7265 45.8169 23.103C45.4262 23.2031 45.1329 23.2231 44.7822 23.2285C44.3902 23.2352 43.0449 23.2565 41.8475 22.3913C40.7049 21.5648 40.2049 20.2991 40.0862 19.968C39.8675 19.3645 39.8995 19.0881 39.5742 18.7756C39.2022 18.4165 38.7822 18.4138 37.5769 18.2162C37.1582 18.1481 36.5742 18.044 35.8729 17.8931C36.1715 19.2136 36.6369 20.211 36.9969 20.8652C38.3182 23.2592 40.1822 24.5343 41.0889 25.1445ZM38.3995 63.2481C38.6235 63.0838 38.9102 62.9169 39.2622 62.738C39.1515 62.4696 38.9222 62.0945 38.4595 61.6779C37.8635 61.1411 36.9675 61.3775 36.5182 61.5524C36.4995 61.6098 36.4755 61.6605 36.4515 61.7153C36.4422 61.7473 36.4275 61.7767 36.4115 61.8087C36.5302 61.8942 36.7089 62.005 36.8475 62.0918C36.9369 62.1452 37.0329 62.2066 37.1342 62.2734L38.3595 63.2774C38.3715 63.2694 38.3849 63.2601 38.3995 63.2481ZM33.0862 70.0268C33.2569 70.0522 33.4222 70.1376 33.5462 70.2565C33.5702 70.2805 34.1649 70.8373 34.9582 70.7144C35.7929 70.5862 36.6542 69.7464 37.4515 68.2924C38.3649 66.6181 38.1582 65.5593 37.5515 64.7955L36.1609 63.6526L35.5569 63.1559C34.9662 63.8275 34.2275 64.3055 33.4315 64.6353C33.1502 64.7274 32.8409 64.8102 32.5009 64.877C30.8715 65.1948 29.6769 65.2442 28.9449 65.2228C28.9422 65.2335 28.9422 65.2468 28.9422 65.2615C28.8742 65.9785 28.9022 67.1121 29.5209 68.0788C30.1769 69.1055 31.3769 69.7598 33.0862 70.0268Z" fill="#FFFBF7"/>
</g>
</g>
</svg>
